<svg xmlns="http://www.w3.org/2000/svg" viewBox="0 0 32 32" width="32" height="32">
  <defs>
    <linearGradient id="g" x1="0" y1="0" x2="1" y2="1">
      <stop offset="0" stop-color="#10b981"/>
      <stop offset="1" stop-color="#0d9488"/>
    </linearGradient>
  </defs>
  <rect width="32" height="32" rx="8" fill="url(#g)"/>
  <path fill="#ffffff" d="M22.5 8.5c-6 0-10.8 3.4-11.9 8.4-.3 1.4-.3 2.8 0 4.1.5-1.9 1.6-3.6 3.2-4.9 2.3-1.9 5.2-2.7 7.9-3.1-2.1 1-4 2.4-5.6 4.1-1.4 1.6-2.3 3.4-2.7 5.4l-.2 1.5h2.3l.1-1c.2-1.2.6-2.3 1.3-3.3 2.9-.2 5.4-1.4 7-3.6 1.6-2.2 2.1-5.2 1.7-8.3l-.1-.7-.2-.1z"/>
</svg>
